<svg xmlns="http://www.w3.org/2000/svg" viewBox="0 0 106 106"><defs><style>.cls-1{fill:#ffc868;}.cls-2{fill:#fff;}.cls-3{opacity:0.1;}.cls-4{fill:#171c1f;}</style></defs><title>lightning-bolt</title><g id="Lightning-Bolt"><g id="Fill"><polygon class="cls-1" points="84 32 58 32 68 2 42 2 22 54 50 54 35 104 84 32"/></g><g id="White"><polygon class="cls-2" points="70 32 35 104 84 32 70 32"/></g><g id="Shadows" class="cls-3"><path d="M51.76,53.08l.15-.5h0A2,2,0,0,0,50,50H25.68l-.77,2H50A2,2,0,0,1,51.76,53.08ZM78.86,34,41.71,88.58l-1.07,3.58L80.22,34Z"/></g><g id="Inner_Lines" data-name="Inner Lines"><rect class="cls-4" x="12.47" y="67" width="80.06" height="2" transform="translate(-31.61 85.49) rotate(-64.08)"/></g><g id="Outline"><path class="cls-4" d="M85.65,33.13h0A2,2,0,0,0,84,30H60.77L69.9,2.63h0A2,2,0,0,0,70,2a2,2,0,0,0-2-2H42a2,2,0,0,0-1.86,1.28h0l-20,52h0A2,2,0,0,0,22,56H47.31L33.08,103.43h0A2,2,0,0,0,33,104a2,2,0,0,0,3.65,1.12h0ZM51.91,54.57A2,2,0,0,0,50,52H24.91L43.37,4H65.23L56.1,31.37h0A2,2,0,0,0,56,32a2,2,0,0,0,2,2H80.22L40.64,92.16,51.92,54.57Z"/></g></g></svg>