<?xml version="1.0" encoding="UTF-8"?>
<svg width="23px" height="23px" viewBox="0 0 23 23" version="1.1" xmlns="http://www.w3.org/2000/svg" xmlns:xlink="http://www.w3.org/1999/xlink">
    <!-- Generator: Sketch 42 (36781) - http://www.bohemiancoding.com/sketch -->
    <title>drag</title>
    <desc>Created with Sketch.</desc>
    <defs></defs>
    <g id="Page-1" stroke="none" stroke-width="1" fill="none" fill-rule="evenodd">
        <g id="Subtle-Color" transform="translate(-301.000000, -251.000000)" fill="#FF7300">
            <g id="drag" transform="translate(301.000000, 251.000000)">
                <path d="M1.707,12.0031 L8.5,12.0031 C8.776,12.0031 9,11.7791 9,11.5031 C9,11.2271 8.776,11.0031 8.5,11.0031 L1.707,11.0031 L3.853,8.8571 C4.049,8.6611 4.049,8.3451 3.853,8.1491 C3.658,7.9541 3.342,7.9541 3.146,8.1491 L0.147,11.1491 C0.101,11.1951 0.064,11.2511 0.038,11.3121 C-0.012,11.4351 -0.012,11.5711 0.038,11.6941 C0.064,11.7551 0.101,11.8111 0.147,11.8571 L3.146,14.8571 C3.244,14.9541 3.372,15.0031 3.5,15.0031 C3.628,15.0031 3.756,14.9541 3.853,14.8571 C4.049,14.6611 4.049,14.3451 3.853,14.1491 L1.707,12.0031 Z M22.962,11.6941 C23.012,11.5711 23.012,11.4351 22.962,11.3121 C22.936,11.2511 22.899,11.1951 22.853,11.1491 L19.853,8.1491 C19.658,7.9541 19.342,7.9541 19.146,8.1491 C18.951,8.3451 18.951,8.6611 19.146,8.8571 L21.293,11.0031 L14.5,11.0031 C14.224,11.0031 14,11.2271 14,11.5031 C14,11.7791 14.224,12.0031 14.5,12.0031 L21.293,12.0031 L19.146,14.1491 C18.951,14.3451 18.951,14.6611 19.146,14.8571 C19.244,14.9541 19.372,15.0031 19.5,15.0031 C19.628,15.0031 19.756,14.9541 19.853,14.8571 L22.853,11.8571 C22.899,11.8111 22.936,11.7551 22.962,11.6941 L22.962,11.6941 Z M14.146,19.1491 L12,21.2961 L12,14.5031 C12,14.2271 11.776,14.0031 11.5,14.0031 C11.224,14.0031 11,14.2271 11,14.5031 L11,21.2961 L8.853,19.1491 C8.658,18.9541 8.342,18.9541 8.146,19.1491 C7.951,19.3451 7.951,19.6611 8.146,19.8571 L11.145,22.8561 C11.192,22.9021 11.248,22.9391 11.309,22.9651 C11.37,22.9891 11.435,23.0031 11.5,23.0031 C11.565,23.0031 11.63,22.9891 11.691,22.9651 C11.752,22.9391 11.808,22.9021 11.854,22.8561 L14.853,19.8571 C15.049,19.6611 15.049,19.3451 14.853,19.1491 C14.658,18.9541 14.342,18.9541 14.146,19.1491 L14.146,19.1491 Z M8.146,3.8571 C7.951,3.6611 7.951,3.3451 8.146,3.1491 L11.145,0.1501 C11.192,0.1041 11.248,0.0671 11.309,0.0411 C11.432,-0.0089 11.568,-0.0089 11.691,0.0411 C11.752,0.0671 11.808,0.1041 11.854,0.1501 L14.853,3.1491 C15.049,3.3451 15.049,3.6611 14.853,3.8571 C14.756,3.9541 14.628,4.0031 14.5,4.0031 C14.372,4.0031 14.244,3.9541 14.146,3.8571 L12,1.7101 L12,8.5031 L12,9.5031 C12,9.7791 11.776,10.0031 11.5,10.0031 C11.224,10.0031 11,9.7791 11,9.5031 L11,8.5031 L11,1.7101 L8.853,3.8571 C8.658,4.0521 8.342,4.0521 8.146,3.8571 L8.146,3.8571 Z" id="Fill-158"></path>
            </g>
        </g>
    </g>
</svg>